<?xml version="1.0" encoding="iso-8859-1"?>
<!-- Uploaded to: SVG Repo, www.svgrepo.com, Generator: SVG Repo Mixer Tools -->
<svg version="1.1" id="Layer_1" xmlns="http://www.w3.org/2000/svg" xmlns:xlink="http://www.w3.org/1999/xlink" 
	 viewBox="0 0 512 512" xml:space="preserve">
<g>
	<rect x="26.483" y="341.076" style="fill:#959CB5;" width="203.034" height="35.31"/>
	<rect x="220.69" y="279.283" style="fill:#959CB5;" width="52.966" height="61.793"/>
</g>
<path style="fill:#C7CFE2;" d="M121.847,138.151l-28.884,79.358c-3.335,9.163,1.389,19.294,10.552,22.628L402.144,348.83
	c9.162,3.335,19.294-1.389,22.628-10.552l11.423-31.384L121.847,138.151z"/>
<g>
	<path style="fill:#D5DCED;" d="M272.305,332.245H222.04c-5.372,0-9.498,4.758-8.739,10.076l5.223,36.558
		c1.242,8.697,8.692,15.158,17.478,15.158h22.342c8.786,0,16.235-6.461,17.478-15.158l5.223-36.558
		C281.803,337.003,277.676,332.245,272.305,332.245z"/>
	<path style="fill:#D5DCED;" d="M17.655,411.693H8.828c-4.875,0-8.828-3.953-8.828-8.828V314.59c0-4.875,3.953-8.828,8.828-8.828
		h8.828c9.751,0,17.655,7.904,17.655,17.655v70.621C35.31,403.788,27.406,411.693,17.655,411.693z"/>
</g>
<g>
	<path style="fill:#C7CFE2;" d="M243.658,378.879l-5.223-36.558c-0.759-5.318,3.367-10.076,8.738-10.076H222.04
		c-5.373,0-9.498,4.758-8.738,10.076l5.223,36.558c1.242,8.697,8.692,15.158,17.478,15.158h22.34c0.476,0,0.929-0.09,1.397-0.128
		C251.58,393.259,244.833,387.106,243.658,378.879z"/>
	<path style="fill:#C7CFE2;" d="M17.655,376.383H8.828c-4.875,0-8.828-3.953-8.828-8.828v35.31c0,4.875,3.953,8.828,8.828,8.828
		h8.828c9.75,0,17.655-7.905,17.655-17.655v-35.31C35.31,368.478,27.405,376.383,17.655,376.383z"/>
</g>
<path style="fill:#AFB9D2;" d="M105.041,184.329l70.172,25.54c6.36,2.315,12.143,5.775,17.188,10.287l50.598,45.242
	c8.409,7.519,18.048,13.288,28.649,17.146l153.124,55.733l0,0l11.423-31.384L121.847,138.151L105.041,184.329z"/>
<path style="fill:#D5DCED;" d="M506.188,236.393L135.232,101.377c-9.163-3.335-19.294,1.389-22.628,10.552l-15.096,41.476
	c-1.667,4.582,0.695,9.647,5.277,11.315l78.467,28.559c8.442,3.073,16.221,7.727,22.919,13.717l50.599,45.242
	c6.698,5.988,14.476,10.644,22.919,13.717l171.533,62.433c3.807,1.385,8.067,0.002,10.335-3.354l50.93-75.404
	C513.698,244.87,511.585,238.358,506.188,236.393z"/>
</svg>